<?xml version="1.0" encoding="UTF-8"?>
<svg width="1200pt" height="1200pt" version="1.1" viewBox="0 0 1200 1200" xmlns="http://www.w3.org/2000/svg">
 <g fill="#00708d">
  <path d="m599.24 1056.5c-24.324 0-44.137 19.812-44.137 44.148 0 24.348 19.801 44.16 44.137 44.16 24.359 0 44.16-19.789 44.16-44.16 0-24.348-19.797-44.148-44.16-44.148z"/>
  <path d="m819.11 28.391h-439.68c-50.16 0-90.828 45.445-90.828 101.5v940.16c0 56.051 40.68 101.51 90.828 101.51h439.68c50.148 0 90.816-45.434 90.816-101.51v-940.16c0-56.051-40.668-101.5-90.816-101.5zm-277.57 81.938h115.44c3.793 0 6.9102 3.0977 6.9102 6.9102 0 3.8164-3.1211 6.8984-6.9102 6.8984h-115.44c-3.8047 0-6.9102-3.0859-6.9102-6.8984s3.082-6.9102 6.9102-6.9102zm57.723 1041.2c-28.078 0-50.914-22.836-50.914-50.941 0-28.078 22.836-50.93 50.914-50.93 28.066 0 50.953 22.848 50.953 50.93-0.003907 28.105-22.887 50.941-50.953 50.941zm277.54-136.54h-555.07v-830.04h555.05v830.04z"/>
  <path d="m600.12 386.88h-0.058594-0.058594c-117.65 0.074219-213.34 95.461-213.34 213.12 0 117.68 95.699 213.06 213.34 213.12h0.058594 0.058594c117.66-0.058594 213.34-95.438 213.34-213.12 0.003906-117.66-95.711-213.05-213.33-213.12zm-0.0625 32.629c91.754 0.023438 167.8 68.496 179.26 157.12-3.6602 5.3867-14.879 5.2695-24.926 4.957-3.5039-0.12109-7.4414-1.0664-11.617-2.6055-18.348-31.477-75.266-54.422-142.68-54.457h-0.058594-0.058594c-67.391 0.035157-124.31 22.98-142.68 54.457-4.1641 1.5352-8.1016 2.4844-11.605 2.6055-10.043 0.3125-21.277 0.43359-24.938-4.957 11.5-88.621 87.578-157.09 179.3-157.12zm-58.656 350.92-6.8867-2.1016c-60.973-23.676-105.89-79.477-113.93-146.63 3.7422-1.6094 11.594-1.5 25.141-1.5 3.4336 0 7.3789 0.96094 11.594 2.5547 4.6797 8.0391 11.855 15.539 21.109 22.246 12.422 8.9883 28.547 20.785 47.23 26.316 33.191 13.945 42.133 41.41 42.707 59.184 0.75781 24.09 0.83984 52.371-26.965 39.93zm58.656-163.49c-8.543-0.035156-15.457-6.9727-15.457-15.516 0-8.5547 6.9102-15.492 15.457-15.527 8.543 0.035157 15.457 6.9727 15.457 15.527 0 8.543-6.9102 15.477-15.457 15.516zm65.547 161.39-6.8867 2.1016c-27.781 12.445-27.719-15.84-26.953-39.926 0.58984-17.762 11.23-44.652 42.719-59.184 18.695-5.5312 34.789-17.328 47.242-26.316 9.2539-6.707 16.43-14.207 21.121-22.246 4.2109-1.5977 8.1602-2.5547 11.594-2.5547 13.547 0 21.383-0.10938 25.141 1.5-8.1016 67.148-53.008 122.98-113.98 146.62z"/>
 </g>
</svg>
